<svg xmlns="http://www.w3.org/2000/svg" viewBox="0 0 24 24" width="20" height="20"><path d="M23.5 6.2s-.2-1.6-.8-2.3c-.8-1-1.7-1-2.1-1.1C16.9 2.5 12 2.5 12 2.5h-.1s-4.9 0-8.6.3c-.5.1-1.3.1-2.1 1.1-.6.7-.8 2.3-.8 2.3S0 8 0 9.8v2.4C0 14 0 15.7.4 17c.2.6.6 1.4 1.6 2.1 1.1.7 2.4.7 3 0 .6-.6.7-1.1.8-1.5 0-.4.1-1.6.1-1.6s0-1.2.1-1.6c.1-.4.2-1 .8-1.6.5-.5 1.5-.5 1.5-.5h8s.9 0 1.5.5c.6.6.7 1.2.8 1.6 0 .4.1 1.6.1 1.6s0 1.2.1 1.6c.1.4.2 1 .8 1.6.6.6 1.9.7 3 .1 1-.6 1.4-1.4 1.6-2 .3-1.2.3-3 .3-3.7v-2.4c0-1.8-.5-3.7-.5-3.7zM9.6 15.5V8.5l6 3.5-6 3.5z" fill="#FF0000"/></svg>