<svg xmlns="http://www.w3.org/2000/svg" viewBox="0 0 64 64" width="160" height="160" fill="none">
  <defs>
    <linearGradient id="g1" x1="0" x2="1" y1="0" y2="1">
      <stop offset="0" stop-color="#9FE8E2"/>
      <stop offset="1" stop-color="#39A9A8"/>
    </linearGradient>
  </defs>
  <path d="M32 4c4 0 10 1 13 6 2 4 3 10 3 18 0 6-4 16-8 20-3 3-6 6-8 6s-5-3-8-6c-4-4-8-14-8-20 0-8 1-14 3-18 3-5 9-6 13-6z" fill="url(#g1)" stroke="#057b7a" stroke-width="1.2"/>
  <circle cx="24" cy="22" r="1.5" fill="#ffffff" opacity="0.8" />
  <circle cx="36" cy="18" r="1" fill="#ffffff" opacity="0.7" />
</svg>